<svg width="24" height="31" viewBox="0 0 24 31" fill="none" xmlns="http://www.w3.org/2000/svg">
<path d="M21.4286 0H2.57143C1.88944 0 1.23539 0.349935 0.753154 0.972824C0.270918 1.59571 0 2.44053 0 3.32143L0 27.6786C0 28.5595 0.270918 29.4043 0.753154 30.0272C1.23539 30.6501 1.88944 31 2.57143 31H9.92411V20.4607H6.54911V15.5H9.92411V11.7191C9.92411 7.41855 11.9063 5.04304 14.9421 5.04304C16.3961 5.04304 17.9164 5.37795 17.9164 5.37795V9.59893H16.2413C14.5907 9.59893 14.0759 10.922 14.0759 12.2789V15.5H17.7605L17.1712 20.4607H14.0759V31H21.4286C22.1106 31 22.7646 30.6501 23.2468 30.0272C23.7291 29.4043 24 28.5595 24 27.6786V3.32143C24 2.44053 23.7291 1.59571 23.2468 0.972824C22.7646 0.349935 22.1106 0 21.4286 0Z" fill="#F1F1F1"/>
</svg>
